<?xml version="1.0" encoding="UTF-8"?>
<svg width="700pt" height="700pt" version="1.1" viewBox="0 0 700 700" xmlns="http://www.w3.org/2000/svg">
 <path d="m391.65 158.9c-3.1836-1.3398-6.6992-1.7031-10.094-1.0508-3.3945 0.65234-6.5195 2.3008-8.9805 4.7266l-105 105c-3.3125 3.2852-5.1758 7.7578-5.1758 12.426s1.8633 9.1406 5.1758 12.426l105 105c3.3047 3.2734 7.7734 5.1016 12.426 5.0742 2.2969 0.058594 4.5742-0.42188 6.6484-1.3984 3.1992-1.3125 5.9336-3.543 7.8633-6.4102 1.9297-2.8633 2.9727-6.2383 2.9883-9.6914v-210c-0.015625-3.4531-1.0586-6.8281-2.9883-9.6914-1.9297-2.8672-4.6641-5.0977-7.8633-6.4102z"/>
</svg>
